inDegrees=yes
name=ik_S41_A04_T01
DataType=double
version=3
OpenSimVersion=4.3-2021-08-27-4bc7ad9
endheader
time	pelvis_tilt	pelvis_list	pelvis_rotation	pelvis_tx	pelvis_ty	pelvis_tz	hip_flexion_r	hip_adduction_r	hip_rotation_r	knee_angle_r	knee_angle_r_beta	ankle_angle_r	subtalar_angle_r	mtp_angle_r	hip_flexion_l	hip_adduction_l	hip_rotation_l	knee_angle_l	knee_angle_l_beta	ankle_angle_l	subtalar_angle_l	mtp_angle_l	lumbar_extension	lumbar_bending	lumbar_rotation	arm_flex_r	arm_add_r	arm_rot_r	elbow_flex_r	pro_sup_r	wrist_flex_r	wrist_dev_r	arm_flex_l	arm_add_l	arm_rot_l	elbow_flex_l	pro_sup_l	wrist_flex_l	wrist_dev_l
14.45999999999978	-18.55620552784372	-9.93075046088863	25.32426752921227	0	0.9399999999999999	0	66.13412368914345	2.077580117815687	-13.9283730857802	51.48575139390702	0.8985958796869374	0	0	0	70.80624160947869	9.428004259174109	-15.83081609124759	53.04663548710653	0.925838446355275	0	0	0	0	0	0	18.50354452555517	-18.50354452555517	3.034463330742028	59.91629362034153	86.96553684376036	0	0	18.50354452555517	-18.50354452555517	3.034463330742028	59.91629362034153	86.96553684339301	0	0
14.47999999999978	-16.00046048798503	-8.286822446206958	26.2429422706411	0	0.9399999999999999	0	63.39418066263169	1.4424049767673	-13.88080317828595	51.83535463833432	0.9046976073778483	0	0	0	68.26632157005804	9.96175094094299	-16.05282571554706	53.43979606511577	0.9327003929305803	0	0	0	0	0	0	18.83634706052396	-18.83634706052395	3.075333909567177	60.45454574918644	86.92466626715633	0	0	18.83634706052396	-18.83634706052395	3.075333909567177	60.45454574918644	86.92466626679666	0	0
14.49999999999978	-15.51875361864717	-7.988013212724961	26.47260621001744	0	0.9399999999999999	0	62.94065452461418	1.238631256481521	-14.07628356320666	51.91942348346817	0.9061648855237832	0	0	0	68.05533718380053	10.05946795640814	-16.08279301708211	53.62722499167731	0.9359716448125577	0	0	0	0	0	0	18.83828805012828	-18.83828805012828	3.075607903959123	60.45827761336283	86.92439227277961	0	0	18.83828805012828	-18.83828805012828	3.075607903959123	60.45827761336283	86.92439227242005	0	0
14.51999999999978	-14.76125308258507	-7.502060469686626	26.82570875740337	0	0.9399999999999999	0	62.18692933522912	0.9035336294016257	-14.01147966682832	52.08771616248166	0.9091021468795707	0	0	0	67.51155854016775	10.26737155402881	-16.15901228644963	53.94977155134718	0.9416011442697773	0	0	0	0	0	0	18.8405602611974	-18.8405602611974	3.07592868244992	60.46264667733762	86.92407149430665	0	0	18.8405602611974	-18.8405602611974	3.07592868244992	60.46264667733762	86.92407149394718	0	0
14.53999999999978	-14.55848336860257	-7.216472290538288	27.01612954242225	0	0.9399999999999999	0	62.42485908887023	0.7269716516384958	-13.31325287165759	52.75225722745741	0.9207005764781071	0	0	0	67.63055172781951	10.44145392779105	-16.57202483444011	54.46572008606815	0.9506061449714985	0	0	0	0	0	0	18.84774208087548	-18.84774208087548	3.076953840569522	60.47664291389481	86.92304633624411	0	0	18.84774208087548	-18.84774208087548	3.076953840569522	60.47664291389481	86.92304633588482	0	0
14.55999999999978	-14.32265129775467	-6.834772398573173	27.04631598737669	0	0.9399999999999999	0	62.02165466370955	0.5860720773165852	-13.10050618648797	52.76379851796901	0.9209020099974636	0	0	0	67.59773678092685	10.60398893322689	-17.3289968394485	54.536819204076	0.9518470586759995	0	0	0	0	0	0	18.84963341543116	-18.84963341543115	3.077219662392859	60.48025961121876	86.92278051443552	0	0	18.84963341543116	-18.84963341543115	3.077219662392859	60.48025961121876	86.92278051407634	0	0
14.57999999999978	-14.03837980894598	-6.619064503188149	27.10148168552871	0	0.9399999999999999	0	61.84395222430133	0.5786121264893221	-12.85302337400035	52.8455737654955	0.9223292573134343	0	0	0	67.8027548924527	10.782457806253	-18.23744933330665	54.64295875176005	0.9536995432496637	0	0	0	0	0	0	18.85176508924958	-18.85176508924958	3.077522206159933	60.48438474315445	86.92247797068526	0	0	18.85176508924958	-18.85176508924958	3.077522206159933	60.48438474315445	86.92247797032611	0	0
14.59999999999978	-12.51036347234065	-5.949131509160973	27.51665045566699	0	0.9399999999999999	0	60.20944730514196	0.3803514371197728	-13.03697705639172	52.95720677366919	0.9242776208599709	0	0	0	66.42812876974578	11.01594435765291	-18.26968680317947	54.90872484433344	0.9583380366052294	0	0	0	0	0	0	18.85800550856736	-18.85800550856736	3.07840580271867	60.49642430681259	86.92159437417564	0	0	18.85800550856736	-18.85800550856736	3.07840580271867	60.49642430681259	86.92159437381662	0	0
14.61999999999978	-11.63024349377668	-5.624728066762766	27.7068266109996	0	0.9399999999999999	0	59.55276326118263	0.3418764549410033	-12.97842054958196	53.11132570313737	0.9269675036188396	0	0	0	65.48525453247865	11.06087433814436	-18.12452120281089	54.97152243831859	0.9594340613826008	0	0	0	0	0	0	18.86052350827113	-18.86052350827113	3.07876098070399	60.5012601775243	86.92123919621005	0	0	18.86052350827113	-18.86052350827113	3.07876098070399	60.5012601775243	86.92123919585106	0	0
14.63999999999978	-11.40899086009496	-5.508601953153627	27.73293443872491	0	0.9399999999999999	0	59.43905927563375	0.2841873938289842	-12.98615889133289	53.23523177534175	0.9291300725420198	0	0	0	65.41992363755709	11.1838992283938	-18.37061793294632	55.01213410240411	0.9601428686356072	0	0	0	0	0	0	18.86299183476527	-18.86299183476527	3.079111178381519	60.5060342373252	86.92088899855196	0	0	18.86299183476527	-18.86299183476527	3.079111178381519	60.5060342373252	86.92088899819306	0	0
14.65999999999978	-11.56212826381043	-5.433455987932518	27.75576716807677	0	0.9399999999999999	0	59.74104198939612	0.1459823419967576	-12.81097040109423	53.44950665501757	0.9328698746966776	0	0	0	65.70660542964747	11.42189399926566	-18.77487350464099	55.01431310916671	0.9601808994780376	0	0	0	0	0	0	18.86684884714207	-18.86684884714207	3.079658517726153	60.51349596262665	86.92034165923778	0	0	18.86684884714207	-18.86684884714207	3.079658517726153	60.51349596262665	86.92034165887898	0	0
14.67999999999978	-11.03119237320647	-5.131305453665154	27.59251304207363	0	0.9399999999999999	0	59.35563298082268	0.3446610220673466	-12.53065228424939	53.60000225269116	0.9354965183858385	0	0	0	65.28168801632205	11.3534291321774	-19.17595793467976	55.0315924018641	0.9604824800280231	0	0	0	0	0	0	18.86879968926581	-18.8687996892658	3.079933642175585	60.51724145031353	86.92006653480365	0	0	18.86879968926581	-18.8687996892658	3.079933642175585	60.51724145031353	86.92006653444489	0	0
14.69999999999978	-10.50131019887131	-4.926712161056093	27.5440121745144	0	0.9399999999999999	0	59.1654637947533	0.3405734891572798	-12.49823300906067	53.90882636287049	0.9408865159180093	0	0	0	64.85509404973952	11.32410895687189	-19.44195425621029	54.98166477139022	0.9596110784885348	0	0	0	0	0	0	18.87121115362027	-18.87121115362027	3.080275360729979	60.5218983470077	86.91972481626824	0	0	18.87121115362027	-18.87121115362027	3.080275360729979	60.5218983470077	86.9197248159095	0	0
14.71999999999978	-9.755321724254131	-4.709338551884764	27.51417984911832	0	0.9399999999999999	0	58.66512437953941	0.3835188816267867	-12.62424230423857	54.04145340260326	0.9432012944385196	0	0	0	64.20353526306215	11.26276448130229	-19.56092842784003	54.96784645026702	0.959369903287837	0	0	0	0	0	0	18.87347773329073	-18.87347773329073	3.080595836764154	60.52626353614669	86.9194043402519	0	0	18.87347773329073	-18.87347773329073	3.080595836764154	60.52626353614669	86.91940433989316	0	0
14.73999999999977	-9.562181204712941	-4.671469360341143	27.37867855103152	0	0.9399999999999999	0	58.6896638955322	0.4494299727484422	-12.61584084736004	54.13717242226321	0.9448719064883669	0	0	0	64.12029973869663	11.15459702895124	-19.66794294576114	54.91781308859284	0.9584966563907815	0	0	0	0	0	0	18.87597400286976	-18.87597400286976	3.080950361721277	60.53109710391804	86.91904981531452	0	0	18.87597400286976	-18.87597400286976	3.080950361721277	60.53109710391804	86.91904981495584	0	0
14.75999999999977	-9.675577723377451	-4.744548738440271	27.2120587025379	0	0.9399999999999999	0	58.8293618585918	0.5931804137136277	-12.54714795018481	54.12767748388612	0.9447061885514128	0	0	0	64.3590807013988	11.02509434883013	-19.69462798341798	54.88994874185485	0.9580103317962861	0	0	0	0	0	0	18.87789287352501	-18.87789287352501	3.081220572074065	60.53477407271847	86.91877960497676	0	0	18.87789287352501	-18.87789287352501	3.081220572074065	60.53477407271847	86.91877960461814	0	0
14.77999999999977	-9.525697068040028	-4.733271801802196	27.0956074123754	0	0.9399999999999999	0	58.86270426728812	0.5924477504922459	-12.52545313409477	54.13147971411301	0.9447725499877908	-3.777311645010272e-35	0	0	64.39350361736923	11.01646758133867	-19.70784133889173	54.88681556012644	0.9579556474590621	-3.777311645010272e-35	0	0	0	0	0	18.87810777290218	-18.87810777290218	3.081250004549053	60.53517210812678	86.91875017250341	0	0	18.87810777290218	-18.87810777290218	3.081250004549053	60.53517210812678	86.91875017214478	0	0
14.79999999999977	-9.032639158998675	-4.599528729273487	26.93807073702558	0	0.9399999999999999	0	58.37563490441489	0.8151280821951788	-12.50642562249773	54.19328704969458	0.9458512914955743	-8.116184010879811e-53	0	0	63.91766092448804	10.8829568623956	-19.71973420259255	54.9079387980828	0.9583243175100828	-8.116184010879811e-53	0	0	0	0	0	18.8801546522323	-18.88015465223229	3.081538095868512	60.53909198688597	86.91846208119993	0	-5.38806921148701e-36	18.8801546522323	-18.88015465223229	3.081538095868512	60.53909198688597	86.91846208084135	0	-5.38806921148701e-36
14.81999999999977	-8.764549642316139	-4.611416037124615	26.95574493334622	0	0.9399999999999999	0	58.36755289184285	0.765272494942754	-12.69241200477649	54.30627279590134	0.9478232647747048	0	0	0	63.65588319626599	10.91920865911474	-19.57726338697799	54.83423315236792	0.9570379113150497	0	0	0	0	0	0	18.88278356483642	-18.88278356483642	3.081912157325162	60.54419364861154	86.9180880197641	0	0	18.88278356483642	-18.88278356483642	3.081912157325162	60.54419364861154	86.91808801940556	0	0
14.83999999999977	-8.759620026172623	-4.657225065714802	26.9659090051823	0	0.9399999999999999	0	58.46552130881138	0.7181242804886143	-12.76960957714165	54.34654322695827	0.9485261163878458	0	0	0	63.66093172550772	10.89124093091797	-19.52890854790863	54.74542987028541	0.9554880016561325	0	0	0	0	0	0	18.94886571423894	-18.94886571423894	3.091310705848129	60.67223919763724	86.90868947176378	0	0	18.94886571423894	-18.94886571423894	3.091310705848129	60.67223919763724	86.90868947140692	0	0
14.85999999999977	-8.948106703792428	-4.892740291503919	26.98813571944374	0	0.9399999999999999	0	58.76254567614134	0.6703785955408714	-12.95703910881708	54.35743425312373	0.9487162006533538	0	0	0	63.86383234008436	10.92379319124178	-19.32485730964786	54.653288282603	0.9538798275730594	0	0	0	0	0	0	18.95093484342572	-18.95093484342572	3.091602243905425	60.67620447581231	86.9083979337227	0	0	18.95093484342572	-18.95093484342572	3.091602243905425	60.67620447581231	86.90839793336588	0	0
14.87999999999977	-8.944185750785403	-4.888904671973368	27.00416266283239	0	0.9399999999999999	0	58.74981212237635	0.5854141814633432	-13.01856523466901	54.37900004246433	0.9490925946831389	0	0	0	63.78856852083073	10.98357335395496	-19.23935752533043	54.57012102031924	0.9524282850163382	0	0	0	0	0	0	18.95327745450118	-18.95327745450118	3.091935380779136	60.68074446476057	86.90806479686752	0	0	18.95327745450118	-18.95327745450118	3.091935380779136	60.68074446476057	86.9080647965108	0	0
14.89999999999977	-8.908369791795915	-4.986821063836887	27.05963674113488	0	0.9399999999999999	0	58.72656382175901	0.522626841135748	-13.13428496370004	54.37287203622946	0.9489856407977576	0	0	0	63.69232713722287	11.06554703656582	-19.0961738792004	54.48521176573875	0.9509463389584946	0	0	0	0	0	0	18.95546951161718	-18.95546951161718	3.092246350218308	60.68498010207048	86.90775382744566	0	0	18.95546951161718	-18.95546951161718	3.092246350218308	60.68498010207048	86.90775382708897	0	0
14.91999999999977	-9.137917660405151	-5.153386100001971	27.0766961294709	0	0.9399999999999999	0	58.96878092074198	0.5179780475023316	-13.1868126925864	54.35312197825553	0.9486409372586527	0	0	0	63.87450584514264	11.14981991424389	-19.06371214296367	54.37962902709044	0.949103572535809	0	0	0	0	0	0	18.95736743339673	-18.95736743339672	3.092512425963144	60.68859499050625	86.90748775171561	0	0	18.95736743339673	-18.95736743339672	3.092512425963144	60.68859499050625	86.90748775135896	0	0
